# xmcd
#
# Track frame offsets:
#	150
#	16038
#	30885
#	41310
#	52200
#	65472
#	81959
#	97743
#	109728
#	124276
#	138371
#	147973
#	159332
#
# Disc length: 2311 seconds
#
# Revision: 1
# Processed by: cddbd v1.5.2PL0 Copyright (c) Steve Scherf et al.
# Submitted via: audiograbber 1.83.01
#
DISCID=9f09050d
DTITLE=Kirby Knob Boys - Lord Look Down on Me
DYEAR=2005
DGENRE=Bluegrass
TTITLE0=In My Hour of Darkness
TTITLE1=The Fields Have Turned Brown
TTITLE2=Lord Look Down on Me
TTITLE3=Lost Highway
TTITLE4=Dreaming of a Little Cabin
TTITLE5=When I Can Read My Title Clear
TTITLE6=Ship From the Kings Harbor Shore
TTITLE7=I Am a Pilgrim
TTITLE8=Lifes's Railway to Heaven
TTITLE9=Just Any Day Now
TTITLE10=Remember the Children
TTITLE11=Who Will Sing For Me
TTITLE12=I'd Rather Live By the Side of the Road
EXTD=
EXTT0=
EXTT1=
EXTT2=
EXTT3=
EXTT4=
EXTT5=
EXTT6=
EXTT7=
EXTT8=
EXTT9=
EXTT10=
EXTT11=
EXTT12=
PLAYORDER=
